<svg version="1.2" xmlns="http://www.w3.org/2000/svg" viewBox="0 0 400 120" width="210" height="63">
	<title>enter_measurement-svg</title>
	<style>
		.s0 { fill: #005181 } 
		.s1 { fill: #ffffff } 
		.s2 { fill: #fff7cf } 
	</style>
	<g id="Layer_1">
		<path id="Layer" class="s0" d="m385.6 117.4h-371.1c-6.6 0-12-5.4-12-12v-91c0-6.6 5.4-12 12-12h371.1c6.6 0 12 5.4 12 12v91c0 6.6-5.4 12-12 12z"/>
	</g>
	<g id="Layer_2_copy">
		<g id="Layer">
			<path id="Layer" class="s1" d="m38.8 38.6h-10.4v8.1h12v2.4h-15.1v-22.7h14.9v2.4h-11.8v7.4h10.4z"/>
			<path id="Layer" class="s1" d="m46.2 32.3l0.2 2.5q0.9-1.3 2.1-2.1c0.8-0.5 1.8-0.7 2.9-0.7 1.8 0 3.2 0.5 4.2 1.6 1 1.1 1.5 2.7 1.5 4.9v10.7h-3.1v-10.6c0-1.5-0.3-2.5-0.9-3.2q-0.9-0.9-2.7-0.9-1.3 0-2.4 0.6c-0.7 0.4-1.2 1-1.6 1.8v12.3h-3.1v-16.9z"/>
			<path id="Layer" class="s1" d="m65.7 28.2v4.1h3.2v2.3h-3.2v10.3c0 0.8 0.2 1.3 0.5 1.7 0.3 0.3 0.8 0.5 1.3 0.5 0.2 0 0.4 0 0.6-0.1 0.2 0 0.4-0.1 0.6-0.2l0.4 2.1c-0.2 0.2-0.6 0.3-1 0.5-0.4 0.1-0.9 0.2-1.3 0.2-1.3 0-2.2-0.4-3-1.1-0.7-0.8-1.1-1.9-1.1-3.6v-10.4h-2.7v-2.3h2.7v-4.1h3z"/>
			<path id="Layer" fill-rule="evenodd" class="s1" d="m79.7 49.5c-2.4 0-4.2-0.8-5.6-2.4-1.4-1.5-2.1-3.6-2.1-6.1v-0.7q0-3.6 2.1-6 2.1-2.4 5.1-2.4c2.3 0 4 0.7 5.2 2.1 1.2 1.4 1.8 3.2 1.8 5.5v1.9h-11v0.1c0 1.6 0.4 3 1.2 4 0.8 1 1.9 1.6 3.3 1.6 1 0 2-0.1 2.7-0.4 0.8-0.3 1.5-0.7 2-1.2l1.2 2q-0.9 0.9-2.4 1.5c-0.9 0.3-2.1 0.5-3.5 0.5zm-0.5-15.1c-1 0-1.9 0.4-2.6 1.3-0.7 0.9-1.2 2-1.3 3.3v0.1h7.8v-0.4c0-1.2-0.3-2.2-1-3-0.6-0.9-1.6-1.3-2.9-1.3z"/>
			<path id="Layer" class="s1" d="m97.6 35l-1.6-0.1q-1.2 0-2.1 0.6c-0.6 0.4-1 0.9-1.3 1.6v12.1h-3.1v-16.9h2.8l0.3 2.5c0.5-0.9 1.1-1.6 1.8-2 0.7-0.5 1.5-0.7 2.4-0.7 0.2 0 0.4 0 0.7 0.1 0.2 0 0.4 0.1 0.5 0.1z"/>
			<path id="Layer" class="s1" d="m111.3 32.3l0.2 2.2c0.6-0.8 1.3-1.4 2.1-1.9 0.8-0.4 1.8-0.7 3-0.7 1.2 0 2.1 0.3 2.9 0.8 0.8 0.5 1.4 1.3 1.8 2.3 0.5-1 1.2-1.7 2.1-2.3 0.9-0.6 1.9-0.8 3.1-0.8 1.7 0 3.1 0.6 4.1 1.8 1 1.2 1.5 3 1.5 5.3v10.1h-3.1v-10.1c0-1.7-0.3-2.8-0.9-3.5-0.6-0.7-1.4-1-2.6-1-1.1 0-1.9 0.4-2.6 1.1-0.7 0.7-1 1.7-1.1 2.8v0.1 10.7h-3.1v-10.2c0-1.6-0.3-2.7-0.9-3.5-0.6-0.7-1.4-1.1-2.5-1.1-0.9 0-1.7 0.2-2.3 0.6-0.6 0.4-1.1 0.9-1.4 1.6v12.5h-3.1v-16.8z"/>
			<path id="Layer" class="s1" d="m141.7 42.9l0.5 2.1h0.1l4.2-12.8h3.4l-7.1 19.5q-0.6 1.7-1.8 3c-0.8 0.9-1.9 1.3-3.2 1.3-0.3 0-0.6 0-1-0.1-0.4-0.1-0.7-0.1-0.9-0.2l0.3-2.4q-0.1 0 0.6 0c0.4 0 0.7 0 0.8 0 0.7 0 1.2-0.3 1.6-0.9 0.4-0.6 0.8-1.2 1-1.9l0.7-1.8-6.3-16.6h3.4z"/>
			<path id="Layer" fill-rule="evenodd" class="s1" d="m173.5 43.3h-9.5l-2.2 5.9h-3.1l8.8-22.8h2.6l8.7 22.8h-3.1zm-8.6-2.6h7.7l-3.8-10.4h-0.1z"/>
			<path id="Layer" class="s1" d="m188.2 47.1q1.5 0 2.7-0.9c0.8-0.6 1.2-1.4 1.2-2.3h2.8v0.1c0.1 1.5-0.6 2.8-1.9 3.9-1.3 1.1-2.9 1.7-4.7 1.7-2.5 0-4.3-0.8-5.6-2.4-1.3-1.6-2-3.6-2-6v-0.7c0-2.4 0.7-4.4 2-6 1.3-1.6 3.2-2.4 5.6-2.4 2 0 3.6 0.6 4.9 1.8 1.3 1.2 1.9 2.6 1.8 4.3v0.1h-3c0-1-0.4-1.9-1.1-2.6-0.7-0.7-1.7-1.1-2.8-1.1-1.6 0-2.8 0.6-3.5 1.7-0.7 1.2-1 2.6-1 4.3v0.4c0 1.7 0.3 3.2 1 4.3 0.8 1.2 1.9 1.8 3.6 1.8z"/>
			<path id="Layer" class="s1" d="m202.3 28.2v4.1h3.2v2.3h-3.2v10.3c0 0.8 0.2 1.3 0.5 1.7 0.3 0.3 0.8 0.5 1.3 0.5 0.2 0 0.4 0 0.6-0.1 0.2 0 0.4-0.1 0.6-0.2l0.4 2.1c-0.2 0.2-0.6 0.3-1 0.5-0.4 0.1-0.9 0.2-1.3 0.2-1.3 0-2.2-0.4-3-1.1-0.7-0.8-1.1-1.9-1.1-3.6v-10.4h-2.7v-2.3h2.7v-4.1h3z"/>
			<path id="Layer" class="s1" d="m212.7 27.9h-3.1v-3.1h3.1zm0 21.3h-3.1v-16.9h3.1z"/>
			<path id="Layer" class="s1" d="m223 44.2l0.3 1.2h0.1l0.3-1.2 3.9-11.9h3.1l-6.2 16.9h-2.3l-6.3-16.9h3.2z"/>
			<path id="Layer" class="s1" d="m236.8 27.9h-3.1v-3.1h3.1zm0 21.3h-3.1v-16.9h3.1z"/>
			<path id="Layer" class="s1" d="m245.6 28.2v4.1h3.2v2.3h-3.2v10.3c0 0.8 0.2 1.3 0.5 1.7 0.3 0.3 0.8 0.5 1.3 0.5 0.2 0 0.4 0 0.6-0.1 0.2 0 0.4-0.1 0.6-0.2l0.4 2.1c-0.2 0.2-0.6 0.3-1 0.5-0.4 0.1-0.9 0.2-1.3 0.2-1.3 0-2.2-0.4-3-1.1-0.7-0.8-1.1-1.9-1.1-3.6v-10.4h-2.7v-2.3h2.7v-4.1h3z"/>
			<path id="Layer" class="s1" d="m255.9 27.9h-3.1v-3.1h3.1zm0 21.3h-3.1v-16.9h3.1z"/>
			<path id="Layer" fill-rule="evenodd" class="s1" d="m267.7 49.5c-2.4 0-4.2-0.8-5.6-2.4-1.4-1.6-2.1-3.6-2.1-6.1v-0.7q0-3.6 2.1-6 2.1-2.4 5.1-2.4c2.3 0 4 0.7 5.2 2.1 1.2 1.4 1.8 3.2 1.8 5.5v1.9h-11v0.1c0 1.6 0.4 3 1.2 4 0.8 1 1.9 1.6 3.3 1.6 1 0 2-0.1 2.7-0.4 0.8-0.3 1.5-0.7 2-1.2l1.2 2q-0.9 0.9-2.4 1.5c-0.9 0.3-2.1 0.5-3.5 0.5zm-0.5-15.1c-1 0-1.9 0.4-2.6 1.3-0.7 0.9-1.2 2-1.3 3.3v0.1h7.8v-0.4c0-1.2-0.3-2.2-1-3-0.7-0.9-1.6-1.3-2.9-1.3z"/>
			<path id="Layer" class="s1" d="m287.4 44.7c0-0.7-0.3-1.2-0.8-1.7-0.5-0.5-1.5-0.8-2.9-1.1-2.1-0.4-3.6-1.1-4.6-1.8-1-0.8-1.6-1.8-1.6-3.1 0-1.4 0.6-2.5 1.8-3.5 1.2-1 2.7-1.5 4.6-1.5 2 0 3.5 0.5 4.7 1.5 1.2 1 1.7 2.2 1.7 3.7v0.1h-2.9c0-0.7-0.3-1.4-0.9-2-0.6-0.6-1.4-0.9-2.5-0.9-1.1 0-1.9 0.2-2.4 0.7-0.5 0.5-0.8 1.1-0.8 1.7 0 0.7 0.2 1.2 0.7 1.6 0.5 0.4 1.4 0.7 2.9 1 2.1 0.5 3.7 1.1 4.8 1.9 1 0.8 1.6 1.8 1.6 3.2q0 2.3-1.8 3.6c-1.2 0.9-2.8 1.4-4.8 1.4-2.2 0-3.9-0.5-5.1-1.6-1.2-1.1-1.8-2.4-1.8-3.8v-0.1h2.9q0.1 1.7 1.2 2.4c0.8 0.5 1.7 0.8 2.7 0.8 1.1 0 2-0.2 2.6-0.7 0.4-0.5 0.7-1.1 0.7-1.8z"/>
			<path id="Layer" fill-rule="evenodd" class="s1" d="m23.5 81.4c0-1.3 0.4-2.4 1.1-3.3 0.7-0.9 1.8-1.9 3.3-2.9-0.8-1-1.4-2-1.8-2.8-0.4-0.8-0.6-1.6-0.6-2.5 0-1.8 0.5-3.1 1.5-4.1 1-1 2.4-1.4 4.2-1.4 1.6 0 3 0.5 4 1.4 1 0.9 1.5 2.1 1.5 3.4 0 1-0.3 1.9-0.8 2.6-0.5 0.7-1.4 1.5-2.4 2.3l-1.7 1.3 5.3 6.4c0.4-0.7 0.8-1.4 1-2.3 0.2-0.8 0.4-1.7 0.4-2.6h2.8c0 1.4-0.2 2.6-0.6 3.8-0.4 1.2-1 2.2-1.8 3.1l2.9 3.5v0.1h-3.6l-1.4-1.4c-0.8 0.6-1.8 1.1-2.8 1.4-1 0.3-2.1 0.5-3.1 0.5q-3.5 0-5.4-1.8c-1.3-1.2-2-2.8-2-4.7zm7.4 4.1c0.8 0 1.5-0.1 2.2-0.4 0.7-0.3 1.4-0.6 2.1-1.1l-5.6-6.8-0.6 0.5c-0.9 0.7-1.6 1.4-1.9 2-0.3 0.6-0.5 1.2-0.5 1.7 0 1.2 0.4 2.1 1.1 2.9 0.7 0.8 1.8 1.2 3.2 1.2zm-2.3-15.5c0 0.6 0.1 1.1 0.4 1.7 0.3 0.6 0.7 1.3 1.3 2l2.2-1.5c0.6-0.4 1-0.8 1.2-1.3q0.3-0.8 0.3-1.5c0-0.6-0.3-1.2-0.8-1.7-0.5-0.5-1.2-0.7-2-0.7-0.8 0-1.5 0.3-2 0.9q-0.6 0.7-0.6 2.1z"/>
			<path id="Layer" class="s1" d="m57.2 64.8l7.3 18.5h0.1l7.3-18.5h3.9v22.8h-3.1v-9l0.3-9.3h-0.1l-7.4 18.3h-2l-7.3-18.2h-0.1l0.3 9.2v9h-3.1v-22.8z"/>
			<path id="Layer" fill-rule="evenodd" class="s1" d="m87.8 87.9c-2.4 0-4.2-0.8-5.6-2.4-1.4-1.6-2.1-3.6-2.1-6.1v-0.7q0-3.6 2.1-6 2.1-2.4 5.1-2.4c2.3 0 4 0.7 5.2 2.1 1.2 1.4 1.8 3.2 1.8 5.5v1.9h-11v0.1c0 1.6 0.4 3 1.2 4 0.8 1 1.9 1.6 3.3 1.6 1 0 2-0.1 2.7-0.4 0.8-0.3 1.5-0.7 2-1.2l1.2 2q-0.9 0.9-2.4 1.5c-0.9 0.3-2.1 0.5-3.5 0.5zm-0.5-15.1c-1 0-1.9 0.4-2.6 1.3-0.7 0.9-1.2 2-1.3 3.3v0.1h7.8v-0.5c0-1.2-0.3-2.2-1-3-0.7-0.8-1.6-1.2-2.9-1.2z"/>
			<path id="Layer" fill-rule="evenodd" class="s1" d="m108.1 87.6c-0.1-0.5-0.2-1-0.2-1.4-0.1-0.4-0.1-0.8-0.1-1.2-0.6 0.8-1.3 1.5-2.2 2-0.9 0.5-1.9 0.8-3 0.8-1.8 0-3.1-0.5-4-1.4-0.9-0.9-1.4-2.1-1.4-3.7 0-1.6 0.7-2.9 2-3.8 1.3-0.9 3.1-1.4 5.3-1.4h3.3v-1.5q0-1.5-0.9-2.4c-0.6-0.6-1.5-0.9-2.6-0.9-1 0-1.8 0.3-2.4 0.8q-0.9 0.7-0.9 1.8h-3v-0.1c-0.1-1.2 0.5-2.4 1.7-3.4 1.2-1 2.8-1.5 4.7-1.5 1.9 0 3.5 0.5 4.6 1.5q1.8 1.5 1.8 4.2v8.1c0 0.6 0 1.2 0.1 1.8 0.1 0.6 0.2 1.1 0.3 1.7zm-5.2-2.3q1.6 0 3-0.9c0.9-0.6 1.5-1.2 1.8-2v-2.7h-3.5q-1.8 0-3 0.9c-0.7 0.6-1.1 1.4-1.1 2.2 0 0.7 0.2 1.3 0.7 1.8 0.5 0.5 1.2 0.7 2.1 0.7z"/>
			<path id="Layer" class="s1" d="m125.1 83.1c0-0.7-0.3-1.2-0.8-1.7-0.5-0.5-1.5-0.8-2.9-1.1-2.1-0.4-3.6-1.1-4.6-1.8-1-0.8-1.6-1.8-1.6-3.1 0-1.4 0.6-2.5 1.8-3.5 1.2-1 2.7-1.5 4.6-1.5 2 0 3.5 0.5 4.7 1.5 1.2 1 1.7 2.2 1.7 3.7v0.1h-2.9c0-0.7-0.3-1.4-0.9-2-0.6-0.6-1.4-0.9-2.5-0.9-1.1 0-1.9 0.2-2.4 0.7-0.5 0.5-0.8 1.1-0.8 1.7 0 0.7 0.2 1.2 0.7 1.6 0.5 0.4 1.4 0.7 2.9 1 2.1 0.5 3.7 1.1 4.8 1.9 1 0.8 1.6 1.8 1.6 3.2q0 2.3-1.8 3.6c-1.2 0.9-2.8 1.4-4.8 1.4-2.2 0-3.9-0.5-5.1-1.6-1.2-1.1-1.8-2.4-1.8-3.8v-0.1h2.9q0.2 1.7 1.2 2.4c0.8 0.5 1.7 0.8 2.7 0.8 1.1 0 2-0.2 2.6-0.7 0.4-0.5 0.7-1.1 0.7-1.8z"/>
			<path id="Layer" class="s1" d="m142.7 85.1c-0.5 0.9-1.2 1.6-2 2.1-0.8 0.5-1.8 0.7-2.9 0.7-1.8 0-3.3-0.6-4.3-1.8-1-1.2-1.5-3-1.5-5.5v-10h3.1v10c0 1.8 0.3 3 0.8 3.7 0.5 0.7 1.4 1 2.5 1 1.1 0 2-0.2 2.7-0.7 0.7-0.4 1.3-1.1 1.6-1.9v-12h3.1v16.9h-2.8z"/>
			<path id="Layer" class="s1" d="m158.2 73.4l-1.6-0.1q-1.2 0-2.1 0.6c-0.6 0.4-1 0.9-1.3 1.6v12.1h-3.1v-16.9h2.8l0.3 2.5c0.5-0.9 1.1-1.6 1.8-2 0.7-0.5 1.5-0.7 2.4-0.7 0.2 0 0.4 0 0.7 0.1 0.2 0 0.4 0.1 0.5 0.1z"/>
			<path id="Layer" fill-rule="evenodd" class="s1" d="m167.9 87.9c-2.4 0-4.2-0.8-5.6-2.4-1.4-1.6-2.1-3.6-2.1-6.1v-0.7q0-3.6 2.1-6 2.1-2.4 5.1-2.4c2.3 0 4 0.7 5.2 2.1 1.2 1.4 1.8 3.2 1.8 5.5v1.9h-11v0.1c0 1.6 0.4 3 1.2 4 0.8 1 1.9 1.6 3.3 1.6 1 0 2-0.1 2.7-0.4 0.8-0.3 1.5-0.7 2-1.2l1.2 2q-0.9 0.9-2.4 1.5c-0.9 0.3-2.1 0.5-3.5 0.5zm-0.5-15.1c-1 0-1.9 0.4-2.6 1.3-0.7 0.9-1.2 2-1.3 3.3v0.1h7.8v-0.5c0-1.2-0.3-2.2-1-3-0.7-0.8-1.6-1.2-2.9-1.2z"/>
			<path id="Layer" class="s1" d="m180.5 70.7l0.2 2.2c0.6-0.8 1.3-1.4 2.1-1.9 0.8-0.4 1.8-0.7 3-0.7 1.2 0 2.1 0.3 2.9 0.8 0.8 0.5 1.4 1.3 1.8 2.3 0.5-1 1.2-1.7 2.1-2.3 0.9-0.6 1.9-0.8 3.1-0.8 1.7 0 3.1 0.6 4.1 1.8 1 1.2 1.5 3 1.5 5.3v10.1h-3.1v-10.1c0-1.7-0.3-2.8-0.9-3.5-0.6-0.7-1.4-1-2.6-1-1.1 0-1.9 0.4-2.6 1.1-0.7 0.7-1 1.7-1.1 2.8v0.1 10.7h-3v-10.2c0-1.6-0.3-2.7-0.9-3.5-0.6-0.7-1.4-1.1-2.5-1.1-0.9 0-1.7 0.2-2.3 0.6-0.6 0.4-1.1 0.9-1.4 1.6v12.5h-3.1v-16.8z"/>
			<path id="Layer" fill-rule="evenodd" class="s1" d="m212.8 87.9c-2.4 0-4.2-0.8-5.6-2.4-1.4-1.6-2.1-3.6-2.1-6.1v-0.7q0-3.6 2.1-6 2.1-2.4 5.1-2.4c2.3 0 4 0.7 5.2 2.1 1.2 1.4 1.8 3.2 1.8 5.5v1.9h-11v0.1c0 1.6 0.4 3 1.2 4 0.8 1 1.9 1.6 3.3 1.6 1 0 2-0.1 2.7-0.4 0.8-0.3 1.5-0.7 2-1.2l1.2 2q-0.9 0.9-2.4 1.5c-0.9 0.3-2.1 0.5-3.5 0.5zm-0.5-15.1c-1 0-1.9 0.4-2.6 1.3-0.7 0.9-1.2 2-1.3 3.3v0.1h7.8v-0.5c0-1.2-0.3-2.2-1-3-0.7-0.8-1.6-1.2-2.9-1.2z"/>
			<path id="Layer" class="s1" d="m225.4 70.7l0.2 2.5q0.9-1.4 2.1-2.1c0.8-0.5 1.8-0.7 2.9-0.7 1.8 0 3.2 0.5 4.2 1.6 1 1.1 1.5 2.7 1.5 4.9v10.7h-3.1v-10.6c0-1.5-0.3-2.5-0.9-3.2q-0.9-0.9-2.7-0.9-1.4 0-2.4 0.6c-0.7 0.4-1.2 1-1.6 1.8v12.3h-3.1v-16.9z"/>
			<path id="Layer" class="s1" d="m244.9 66.6v4.1h3.2v2.3h-3.2v10.3c0 0.8 0.2 1.3 0.5 1.7 0.3 0.3 0.8 0.5 1.3 0.5 0.2 0 0.4 0 0.6-0.1 0.2 0 0.4-0.1 0.6-0.2l0.4 2.1c-0.2 0.2-0.6 0.3-1 0.5-0.4 0.1-0.9 0.2-1.3 0.2-1.3 0-2.2-0.4-3-1.1-0.7-0.8-1.1-1.9-1.1-3.6v-10.4h-2.7v-2.3h2.7v-4.1h3z"/>
			<path id="Layer" class="s1" d="m261.7 83.1c0-0.7-0.3-1.2-0.8-1.7-0.5-0.5-1.5-0.8-2.9-1.1-2.1-0.4-3.6-1.1-4.6-1.8-1-0.8-1.6-1.8-1.6-3.1 0-1.4 0.6-2.5 1.8-3.5 1.2-1 2.7-1.5 4.6-1.5 2 0 3.5 0.5 4.7 1.5 1.2 1 1.7 2.2 1.7 3.7v0.1h-2.9c0-0.7-0.3-1.4-0.9-2-0.6-0.6-1.4-0.9-2.5-0.9-1.1 0-1.9 0.2-2.4 0.7-0.5 0.5-0.8 1.1-0.8 1.7 0 0.7 0.2 1.2 0.7 1.6 0.5 0.4 1.4 0.7 2.9 1 2.1 0.5 3.7 1.1 4.8 1.9 1 0.8 1.6 1.8 1.6 3.2q0 2.3-1.8 3.6c-1.2 0.9-2.8 1.4-4.8 1.4-2.2 0-3.9-0.5-5.1-1.6-1.2-1.1-1.8-2.4-1.8-3.8v-0.1h2.9q0.2 1.7 1.2 2.4c0.8 0.5 1.7 0.8 2.7 0.8 1.1 0 2-0.2 2.6-0.7 0.4-0.5 0.7-1.1 0.7-1.8z"/>
		</g>
	</g>
	<g id="Layer_5">
		<path id="Layer" class="s2" d="m333.3 57.5h-28.2c-1.2 0-2.2-1-2.2-2.2 0-1.2 1-2.2 2.2-2.2h28.2c1.2 0 2.2 1 2.2 2.2 0 1.2-1 2.2-2.2 2.2z"/>
		<path id="Layer" class="s2" d="m322.2 68.6c-0.6 0-1.1-0.2-1.6-0.7-0.9-0.9-0.9-2.3 0-3.2l9.6-9.6-9.6-9.6c-0.9-0.9-0.9-2.3 0-3.2 0.9-0.9 2.3-0.9 3.2 0l11.1 11.1c0.9 0.9 0.9 2.3 0 3.2l-11.1 11.4c-0.5 0.4-1.1 0.6-1.6 0.6z"/>
		<path id="Layer" fill-rule="evenodd" class="s2" d="m350.4 95.3c-3.3 0-5.9-2.7-5.9-5.9v-53.4c0-2.5 1.6-4.8 4-5.6l17.8-5.9c4-1.2 7.8 1.7 7.8 5.6v53.5c0 2.5-1.6 4.8-4 5.6l-17.8 6c-0.7 0.1-1.3 0.1-1.9 0.1zm17.8-66.8c-0.2 0-0.4 0-0.5 0.1l-17.8 5.9c-0.6 0.2-1 0.8-1 1.4v53.5c0 1 1.1 1.7 2 1.4l17.8-5.9c0.6-0.2 1-0.8 1-1.4v-53.5c0-0.8-0.7-1.5-1.5-1.5z"/>
		<path id="Layer" class="s2" d="m328.9 38.9c-1.2 0-2.2-1-2.2-2.2v-4.5c0-4.5 3.7-8.2 8.2-8.2h33.4c1.2 0 2.2 1 2.2 2.2 0 1.2-1 2.2-2.2 2.2h-33.4c-2 0-3.7 1.7-3.7 3.7v4.5c-0.1 1.3-1.1 2.3-2.3 2.3z"/>
		<path id="Layer" class="s2" d="m346.7 86.4h-11.9c-4.5 0-8.2-3.7-8.2-8.2v-4.5c0-1.2 1-2.2 2.2-2.2 1.2 0 2.2 1 2.2 2.2v4.5c0 2 1.7 3.7 3.7 3.7h11.9c1.2 0 2.2 1 2.2 2.2 0.1 1.3-0.9 2.3-2.1 2.3z"/>
	</g>
</svg>