<?xml version="1.0" encoding="utf-8"?>
<!-- Generator: Adobe Illustrator 18.1.1, SVG Export Plug-In . SVG Version: 6.00 Build 0)  -->
<svg version="1.1" xmlns="http://www.w3.org/2000/svg" xmlns:xlink="http://www.w3.org/1999/xlink" x="0px" y="0px"
	 viewBox="0 0 400 120" enable-background="new 0 0 400 120" xml:space="preserve">
<g id="Layer_1">
	<path fill="#CA0607" d="M385.6,117.4H14.5c-6.6,0-12-5.4-12-12v-91c0-6.6,5.4-12,12-12h371.1c6.6,0,12,5.4,12,12v91
		C397.6,112,392.2,117.4,385.6,117.4z"/>
</g>
<g id="Layer_2">
	<g>
		<path fill="#FFFFFF" d="M37.7,43.4c0-1-0.4-1.9-1.2-2.6c-0.8-0.7-2.2-1.3-4.2-1.8c-2.4-0.6-4.3-1.4-5.6-2.5c-1.3-1.1-2-2.5-2-4.2
			c0-1.8,0.7-3.3,2.2-4.4s3.3-1.8,5.6-1.8c2.5,0,4.5,0.7,5.9,2c1.5,1.4,2.2,2.9,2.1,4.8l0,0.1h-2.9c0-1.3-0.4-2.4-1.3-3.2
			c-0.9-0.8-2.1-1.2-3.8-1.2c-1.5,0-2.7,0.3-3.5,1c-0.8,0.7-1.2,1.6-1.2,2.7c0,1,0.4,1.8,1.3,2.5c0.9,0.7,2.3,1.2,4.3,1.7
			c2.4,0.6,4.2,1.5,5.5,2.6s1.9,2.6,1.9,4.3c0,1.8-0.8,3.3-2.3,4.4c-1.5,1.1-3.5,1.7-5.9,1.7c-2.3,0-4.3-0.6-6-1.9
			c-1.7-1.2-2.6-2.9-2.5-4.9l0-0.1h2.9c0,1.5,0.5,2.6,1.6,3.3c1.1,0.8,2.4,1.1,4,1.1c1.6,0,2.8-0.3,3.7-1S37.7,44.6,37.7,43.4z"/>
		<path fill="#FFFFFF" d="M49.9,42.9l0.5,2.1h0.1l4.2-12.8h3.4L51,51.8c-0.4,1.1-1,2.1-1.8,3S47.3,56,45.9,56c-0.3,0-0.6,0-1-0.1
			c-0.4-0.1-0.7-0.1-0.9-0.2l0.3-2.4c-0.1,0,0.1,0,0.6,0c0.4,0,0.7,0,0.8,0c0.7,0,1.2-0.3,1.6-0.9c0.4-0.6,0.8-1.2,1-1.9l0.7-1.8
			l-6.3-16.6h3.4L49.9,42.9z"/>
		<path fill="#FFFFFF" d="M63.5,32.3l0.2,2.5c0.6-0.9,1.3-1.6,2.1-2.1c0.8-0.5,1.8-0.7,2.9-0.7c1.8,0,3.2,0.5,4.2,1.6
			c1,1.1,1.5,2.7,1.5,4.9v10.7h-3.1V38.6c0-1.5-0.3-2.5-0.9-3.2c-0.6-0.6-1.5-0.9-2.7-0.9c-0.9,0-1.7,0.2-2.4,0.6
			c-0.7,0.4-1.2,1-1.6,1.8v12.3h-3.1V32.3H63.5z"/>
		<path fill="#FFFFFF" d="M85.9,47.1c1,0,1.9-0.3,2.7-0.9c0.8-0.6,1.2-1.4,1.2-2.3h2.8l0,0.1c0.1,1.5-0.6,2.8-1.9,3.9
			c-1.3,1.1-2.9,1.7-4.7,1.7c-2.5,0-4.3-0.8-5.6-2.4c-1.3-1.6-2-3.6-2-6v-0.7c0-2.4,0.7-4.4,2-6c1.3-1.6,3.2-2.4,5.6-2.4
			c2,0,3.6,0.6,4.9,1.8c1.3,1.2,1.9,2.6,1.8,4.3l0,0.1h-2.8c0-1-0.4-1.9-1.1-2.6c-0.7-0.7-1.7-1.1-2.8-1.1c-1.6,0-2.8,0.6-3.5,1.7
			c-0.7,1.2-1,2.6-1,4.3V41c0,1.7,0.3,3.2,1,4.3C83.1,46.5,84.2,47.1,85.9,47.1z"/>
		<path fill="#FFFFFF" d="M106.7,32.3l0.2,2.2c0.6-0.8,1.3-1.4,2.1-1.9c0.8-0.4,1.8-0.7,3-0.7s2.1,0.3,2.9,0.8
			c0.8,0.5,1.4,1.3,1.8,2.3c0.5-1,1.2-1.7,2.1-2.3s1.9-0.8,3.1-0.8c1.7,0,3.1,0.6,4.1,1.8c1,1.2,1.5,3,1.5,5.3v10.1h-3.1V39
			c0-1.7-0.3-2.8-0.9-3.5c-0.6-0.7-1.4-1-2.6-1c-1.1,0-1.9,0.4-2.6,1.1c-0.7,0.7-1,1.7-1.1,2.8v0.1v10.7h-3.1V39
			c0-1.6-0.3-2.7-0.9-3.5c-0.6-0.7-1.4-1.1-2.5-1.1c-0.9,0-1.7,0.2-2.3,0.6c-0.6,0.4-1.1,0.9-1.4,1.6v12.5h-3.1V32.3H106.7z"/>
		<path fill="#FFFFFF" d="M137.1,42.9l0.5,2.1h0.1l4.2-12.8h3.4l-7.1,19.5c-0.4,1.1-1,2.1-1.8,3s-1.9,1.3-3.2,1.3
			c-0.3,0-0.6,0-1-0.1c-0.4-0.1-0.7-0.1-0.9-0.2l0.3-2.4c-0.1,0,0.1,0,0.6,0c0.4,0,0.7,0,0.8,0c0.7,0,1.2-0.3,1.6-0.9
			c0.4-0.6,0.8-1.2,1-1.9l0.7-1.8l-6.3-16.6h3.4L137.1,42.9z"/>
		<path fill="#FFFFFF" d="M168.8,43.3h-9.5l-2.2,5.9H154l8.8-22.8h2.6l8.7,22.8H171L168.8,43.3z M160.3,40.7h7.7l-3.8-10.4h-0.1
			L160.3,40.7z"/>
		<path fill="#FFFFFF" d="M183.5,47.1c1,0,1.9-0.3,2.7-0.9c0.8-0.6,1.2-1.4,1.2-2.3h2.8l0,0.1c0.1,1.5-0.6,2.8-1.9,3.9
			c-1.3,1.1-2.9,1.7-4.7,1.7c-2.5,0-4.3-0.8-5.6-2.4c-1.3-1.6-2-3.6-2-6v-0.7c0-2.4,0.7-4.4,2-6c1.3-1.6,3.2-2.4,5.6-2.4
			c2,0,3.6,0.6,4.9,1.8c1.3,1.2,1.9,2.6,1.8,4.3l0,0.1h-2.8c0-1-0.4-1.9-1.1-2.6c-0.7-0.7-1.7-1.1-2.8-1.1c-1.6,0-2.8,0.6-3.5,1.7
			c-0.7,1.2-1,2.6-1,4.3V41c0,1.7,0.3,3.2,1,4.3C180.7,46.5,181.9,47.1,183.5,47.1z"/>
		<path fill="#FFFFFF" d="M197.7,28.2v4.1h3.2v2.3h-3.2v10.3c0,0.8,0.2,1.3,0.5,1.7c0.3,0.3,0.8,0.5,1.3,0.5c0.2,0,0.4,0,0.6-0.1
			c0.2,0,0.4-0.1,0.6-0.2l0.4,2.1c-0.2,0.2-0.6,0.3-1,0.5c-0.4,0.1-0.9,0.2-1.3,0.2c-1.3,0-2.2-0.4-3-1.1c-0.7-0.8-1.1-1.9-1.1-3.6
			V34.5h-2.7v-2.3h2.7v-4.1H197.7z"/>
		<path fill="#FFFFFF" d="M208,27.9h-3.1v-3.1h3.1V27.9z M208,49.2h-3.1V32.3h3.1V49.2z"/>
		<path fill="#FFFFFF" d="M218.4,44.2l0.3,1.2h0.1l0.3-1.2l3.9-11.9h3.1l-6.2,16.9h-2.3l-6.3-16.9h3.2L218.4,44.2z"/>
		<path fill="#FFFFFF" d="M232.2,27.9h-3.1v-3.1h3.1V27.9z M232.2,49.2h-3.1V32.3h3.1V49.2z"/>
		<path fill="#FFFFFF" d="M241,28.2v4.1h3.2v2.3H241v10.3c0,0.8,0.2,1.3,0.5,1.7c0.3,0.3,0.8,0.5,1.3,0.5c0.2,0,0.4,0,0.6-0.1
			c0.2,0,0.4-0.1,0.6-0.2l0.4,2.1c-0.2,0.2-0.6,0.3-1,0.5c-0.4,0.1-0.9,0.2-1.3,0.2c-1.3,0-2.2-0.4-3-1.1c-0.7-0.8-1.1-1.9-1.1-3.6
			V34.5h-2.7v-2.3h2.7v-4.1H241z"/>
		<path fill="#FFFFFF" d="M251.3,27.9h-3.1v-3.1h3.1V27.9z M251.3,49.2h-3.1V32.3h3.1V49.2z"/>
		<path fill="#FFFFFF" d="M263.1,49.5c-2.4,0-4.2-0.8-5.6-2.4c-1.4-1.6-2.1-3.6-2.1-6.1v-0.7c0-2.4,0.7-4.4,2.1-6
			c1.4-1.6,3.1-2.4,5.1-2.4c2.3,0,4,0.7,5.2,2.1c1.2,1.4,1.8,3.2,1.8,5.5v1.9h-11l0,0.1c0,1.6,0.4,3,1.2,4c0.8,1,1.9,1.6,3.3,1.6
			c1,0,2-0.1,2.7-0.4c0.8-0.3,1.5-0.7,2-1.2l1.2,2c-0.6,0.6-1.4,1.1-2.4,1.5C265.7,49.3,264.5,49.5,263.1,49.5z M262.6,34.4
			c-1,0-1.9,0.4-2.6,1.3c-0.7,0.9-1.2,2-1.3,3.3l0,0.1h7.8v-0.4c0-1.2-0.3-2.2-1-3C264.8,34.8,263.9,34.4,262.6,34.4z"/>
		<path fill="#FFFFFF" d="M282.8,44.7c0-0.7-0.3-1.2-0.8-1.7s-1.5-0.8-2.9-1.1c-2.1-0.4-3.6-1.1-4.6-1.8c-1-0.8-1.6-1.8-1.6-3.1
			c0-1.4,0.6-2.5,1.8-3.5c1.2-1,2.7-1.5,4.6-1.5c2,0,3.5,0.5,4.7,1.5c1.2,1,1.7,2.2,1.7,3.7l0,0.1h-2.9c0-0.7-0.3-1.4-0.9-2
			c-0.6-0.6-1.4-0.9-2.5-0.9c-1.1,0-1.9,0.2-2.4,0.7c-0.5,0.5-0.8,1.1-0.8,1.7c0,0.7,0.2,1.2,0.7,1.6c0.5,0.4,1.4,0.7,2.9,1
			c2.1,0.5,3.7,1.1,4.8,1.9c1,0.8,1.6,1.8,1.6,3.2c0,1.5-0.6,2.7-1.8,3.6c-1.2,0.9-2.8,1.4-4.8,1.4c-2.2,0-3.9-0.5-5.1-1.6
			c-1.2-1.1-1.8-2.4-1.8-3.8l0-0.1h2.9c0.1,1.1,0.5,1.9,1.2,2.4c0.8,0.5,1.7,0.8,2.7,0.8c1.1,0,2-0.2,2.6-0.7
			C282.5,46,282.8,45.4,282.8,44.7z"/>
		<path fill="#FFFFFF" d="M23.5,81.4c0-1.3,0.4-2.4,1.1-3.3s1.8-1.9,3.3-2.9c-0.8-1-1.4-2-1.8-2.8c-0.4-0.8-0.6-1.6-0.6-2.5
			c0-1.8,0.5-3.1,1.5-4.1s2.4-1.4,4.2-1.4c1.6,0,3,0.5,4,1.4c1,0.9,1.5,2.1,1.5,3.4c0,1-0.3,1.9-0.8,2.6c-0.5,0.7-1.4,1.5-2.4,2.3
			l-1.7,1.3l5.3,6.4c0.4-0.7,0.8-1.4,1-2.3c0.2-0.8,0.4-1.7,0.4-2.6h2.8c0,1.4-0.2,2.6-0.6,3.8c-0.4,1.2-1,2.2-1.8,3.1l2.9,3.5
			l0,0.1h-3.6L36.8,86c-0.8,0.6-1.8,1.1-2.8,1.4c-1,0.3-2.1,0.5-3.1,0.5c-2.3,0-4.1-0.6-5.4-1.8C24.2,84.9,23.5,83.3,23.5,81.4z
			 M30.9,85.5c0.8,0,1.5-0.1,2.2-0.4c0.7-0.3,1.4-0.6,2.1-1.1l-5.6-6.8l-0.6,0.5c-0.9,0.7-1.6,1.4-1.9,2c-0.3,0.6-0.5,1.2-0.5,1.7
			c0,1.2,0.4,2.1,1.1,2.9C28.4,85.1,29.5,85.5,30.9,85.5z M28.6,70c0,0.6,0.1,1.1,0.4,1.7c0.3,0.6,0.7,1.3,1.3,2l2.2-1.5
			c0.6-0.4,1-0.8,1.2-1.3c0.2-0.5,0.3-1,0.3-1.5c0-0.6-0.3-1.2-0.8-1.7c-0.5-0.5-1.2-0.7-2-0.7c-0.8,0-1.5,0.3-2,0.9
			C28.8,68.4,28.6,69.1,28.6,70z"/>
		<path fill="#FFFFFF" d="M57.2,64.8l7.3,18.5h0.1l7.3-18.5h3.9v22.8h-3.1v-9l0.3-9.3l-0.1,0l-7.4,18.3h-2l-7.3-18.2l-0.1,0l0.3,9.2
			v9h-3.1V64.8H57.2z"/>
		<path fill="#FFFFFF" d="M87.8,87.9c-2.4,0-4.2-0.8-5.6-2.4c-1.4-1.6-2.1-3.6-2.1-6.1v-0.7c0-2.4,0.7-4.4,2.1-6
			c1.4-1.6,3.1-2.4,5.1-2.4c2.3,0,4,0.7,5.2,2.1c1.2,1.4,1.8,3.2,1.8,5.5v1.9h-11l0,0.1c0,1.6,0.4,3,1.2,4c0.8,1,1.9,1.6,3.3,1.6
			c1,0,2-0.1,2.7-0.4c0.8-0.3,1.5-0.7,2-1.2l1.2,2c-0.6,0.6-1.4,1.1-2.4,1.5C90.4,87.7,89.2,87.9,87.8,87.9z M87.3,72.8
			c-1,0-1.9,0.4-2.6,1.3c-0.7,0.9-1.2,2-1.3,3.3l0,0.1h7.8V77c0-1.2-0.3-2.2-1-3C89.5,73.2,88.6,72.8,87.3,72.8z"/>
		<path fill="#FFFFFF" d="M108.1,87.6c-0.1-0.5-0.2-1-0.2-1.4c-0.1-0.4-0.1-0.8-0.1-1.2c-0.6,0.8-1.3,1.5-2.2,2s-1.9,0.8-3,0.8
			c-1.8,0-3.1-0.5-4-1.4c-0.9-0.9-1.4-2.1-1.4-3.7c0-1.6,0.7-2.9,2-3.8c1.3-0.9,3.1-1.4,5.3-1.4h3.3V76c0-1-0.3-1.8-0.9-2.4
			c-0.6-0.6-1.5-0.9-2.6-0.9c-1,0-1.8,0.3-2.4,0.8c-0.6,0.5-0.9,1.1-0.9,1.8H98l0-0.1c-0.1-1.2,0.5-2.4,1.7-3.4
			c1.2-1,2.8-1.5,4.7-1.5c1.9,0,3.5,0.5,4.6,1.5c1.2,1,1.8,2.4,1.8,4.2v8.1c0,0.6,0,1.2,0.1,1.8s0.2,1.1,0.3,1.7H108.1z M102.9,85.3
			c1.1,0,2.1-0.3,3-0.9c0.9-0.6,1.5-1.2,1.8-2v-2.7h-3.5c-1.2,0-2.2,0.3-3,0.9c-0.7,0.6-1.1,1.4-1.1,2.2c0,0.7,0.2,1.3,0.7,1.8
			S102,85.3,102.9,85.3z"/>
		<path fill="#FFFFFF" d="M125.1,83.1c0-0.7-0.3-1.2-0.8-1.7s-1.5-0.8-2.9-1.1c-2.1-0.4-3.6-1.1-4.6-1.8c-1-0.8-1.6-1.8-1.6-3.1
			c0-1.4,0.6-2.5,1.8-3.5c1.2-1,2.7-1.5,4.6-1.5c2,0,3.5,0.5,4.7,1.5c1.2,1,1.7,2.2,1.7,3.7l0,0.1h-2.9c0-0.7-0.3-1.4-0.9-2
			c-0.6-0.6-1.4-0.9-2.5-0.9c-1.1,0-1.9,0.2-2.4,0.7c-0.5,0.5-0.8,1.1-0.8,1.7c0,0.7,0.2,1.2,0.7,1.6c0.5,0.4,1.4,0.7,2.9,1
			c2.1,0.5,3.7,1.1,4.8,1.9c1,0.8,1.6,1.8,1.6,3.2c0,1.5-0.6,2.7-1.8,3.6c-1.2,0.9-2.8,1.4-4.8,1.4c-2.2,0-3.9-0.5-5.1-1.6
			c-1.2-1.1-1.8-2.4-1.8-3.8l0-0.1h2.9c0.1,1.1,0.5,1.9,1.2,2.4c0.8,0.5,1.7,0.8,2.7,0.8c1.1,0,2-0.2,2.6-0.7
			C124.8,84.4,125.1,83.8,125.1,83.1z"/>
		<path fill="#FFFFFF" d="M142.7,85.1c-0.5,0.9-1.2,1.6-2,2.1c-0.8,0.5-1.8,0.7-2.9,0.7c-1.8,0-3.3-0.6-4.3-1.8
			c-1-1.2-1.5-3-1.5-5.5v-10h3.1v10c0,1.8,0.3,3,0.8,3.7c0.5,0.7,1.4,1,2.5,1c1.1,0,2-0.2,2.7-0.7c0.7-0.4,1.3-1.1,1.6-1.9V70.7h3.1
			v16.9h-2.8L142.7,85.1z"/>
		<path fill="#FFFFFF" d="M158.2,73.4l-1.6-0.1c-0.8,0-1.5,0.2-2.1,0.6c-0.6,0.4-1,0.9-1.3,1.6v12.1h-3.1V70.7h2.8l0.3,2.5
			c0.5-0.9,1.1-1.6,1.8-2c0.7-0.5,1.5-0.7,2.4-0.7c0.2,0,0.4,0,0.7,0.1c0.2,0,0.4,0.1,0.5,0.1L158.2,73.4z"/>
		<path fill="#FFFFFF" d="M167.9,87.9c-2.4,0-4.2-0.8-5.6-2.4c-1.4-1.6-2.1-3.6-2.1-6.1v-0.7c0-2.4,0.7-4.4,2.1-6
			c1.4-1.6,3.1-2.4,5.1-2.4c2.3,0,4,0.7,5.2,2.1c1.2,1.4,1.8,3.2,1.8,5.5v1.9h-11l0,0.1c0,1.6,0.4,3,1.2,4c0.8,1,1.9,1.6,3.3,1.6
			c1,0,2-0.1,2.7-0.4c0.8-0.3,1.5-0.7,2-1.2l1.2,2c-0.6,0.6-1.4,1.1-2.4,1.5C170.5,87.7,169.3,87.9,167.9,87.9z M167.4,72.8
			c-1,0-1.9,0.4-2.6,1.3c-0.7,0.9-1.2,2-1.3,3.3l0,0.1h7.8V77c0-1.2-0.3-2.2-1-3C169.6,73.2,168.7,72.8,167.4,72.8z"/>
		<path fill="#FFFFFF" d="M180.5,70.7l0.2,2.2c0.6-0.8,1.3-1.4,2.1-1.9c0.8-0.4,1.8-0.7,3-0.7s2.1,0.3,2.9,0.8
			c0.8,0.5,1.4,1.3,1.8,2.3c0.5-1,1.2-1.7,2.1-2.3s1.9-0.8,3.1-0.8c1.7,0,3.1,0.6,4.1,1.8c1,1.2,1.5,3,1.5,5.3v10.1h-3.1V77.4
			c0-1.7-0.3-2.8-0.9-3.5c-0.6-0.7-1.4-1-2.6-1c-1.1,0-1.9,0.4-2.6,1.1c-0.7,0.7-1,1.7-1.1,2.8v0.1v10.7H188V77.4
			c0-1.6-0.3-2.7-0.9-3.5c-0.6-0.7-1.4-1.1-2.5-1.1c-0.9,0-1.7,0.2-2.3,0.6c-0.6,0.4-1.1,0.9-1.4,1.6v12.5h-3.1V70.7H180.5z"/>
		<path fill="#FFFFFF" d="M212.8,87.9c-2.4,0-4.2-0.8-5.6-2.4c-1.4-1.6-2.1-3.6-2.1-6.1v-0.7c0-2.4,0.7-4.4,2.1-6
			c1.4-1.6,3.1-2.4,5.1-2.4c2.3,0,4,0.7,5.2,2.1c1.2,1.4,1.8,3.2,1.8,5.5v1.9h-11l0,0.1c0,1.6,0.4,3,1.2,4c0.8,1,1.9,1.6,3.3,1.6
			c1,0,2-0.1,2.7-0.4c0.8-0.3,1.5-0.7,2-1.2l1.2,2c-0.6,0.6-1.4,1.1-2.4,1.5C215.4,87.7,214.2,87.9,212.8,87.9z M212.3,72.8
			c-1,0-1.9,0.4-2.6,1.3c-0.7,0.9-1.2,2-1.3,3.3l0,0.1h7.8V77c0-1.2-0.3-2.2-1-3C214.5,73.2,213.6,72.8,212.3,72.8z"/>
		<path fill="#FFFFFF" d="M225.4,70.7l0.2,2.5c0.6-0.9,1.3-1.6,2.1-2.1c0.8-0.5,1.8-0.7,2.9-0.7c1.8,0,3.2,0.5,4.2,1.6
			c1,1.1,1.5,2.7,1.5,4.9v10.7h-3.1V77c0-1.5-0.3-2.5-0.9-3.2c-0.6-0.6-1.5-0.9-2.7-0.9c-0.9,0-1.7,0.2-2.4,0.6
			c-0.7,0.4-1.2,1-1.6,1.8v12.3h-3.1V70.7H225.4z"/>
		<path fill="#FFFFFF" d="M244.9,66.6v4.1h3.2v2.3h-3.2v10.3c0,0.8,0.2,1.3,0.5,1.7c0.3,0.3,0.8,0.5,1.3,0.5c0.2,0,0.4,0,0.6-0.1
			c0.2,0,0.4-0.1,0.6-0.2l0.4,2.1c-0.2,0.2-0.6,0.3-1,0.5c-0.4,0.1-0.9,0.2-1.3,0.2c-1.3,0-2.2-0.4-3-1.1c-0.7-0.8-1.1-1.9-1.1-3.6
			V72.9h-2.7v-2.3h2.7v-4.1H244.9z"/>
		<path fill="#FFFFFF" d="M261.7,83.1c0-0.7-0.3-1.2-0.8-1.7s-1.5-0.8-2.9-1.1c-2.1-0.4-3.6-1.1-4.6-1.8c-1-0.8-1.6-1.8-1.6-3.1
			c0-1.4,0.6-2.5,1.8-3.5c1.2-1,2.7-1.5,4.6-1.5c2,0,3.5,0.5,4.7,1.5c1.2,1,1.7,2.2,1.7,3.7l0,0.1h-2.9c0-0.7-0.3-1.4-0.9-2
			c-0.6-0.6-1.4-0.9-2.5-0.9c-1.1,0-1.9,0.2-2.4,0.7c-0.5,0.5-0.8,1.1-0.8,1.7c0,0.7,0.2,1.2,0.7,1.6c0.5,0.4,1.4,0.7,2.9,1
			c2.1,0.5,3.7,1.1,4.8,1.9c1,0.8,1.6,1.8,1.6,3.2c0,1.5-0.6,2.7-1.8,3.6c-1.2,0.9-2.8,1.4-4.8,1.4c-2.2,0-3.9-0.5-5.1-1.6
			c-1.2-1.1-1.8-2.4-1.8-3.8l0-0.1h2.9c0.1,1.1,0.5,1.9,1.2,2.4c0.8,0.5,1.7,0.8,2.7,0.8c1.1,0,2-0.2,2.6-0.7
			C261.4,84.4,261.7,83.8,261.7,83.1z"/>
	</g>
</g>
<g id="Layer_3">
	<g>
		<g>
			<g>
				<path fill="#FFF7CF" d="M305.3,60c0-10.4,8.4-18.8,18.8-18.8c0,0,0,0,0,0h17.4l-4,4c-1.2,1.2-1.2,3.2,0,4.4
					c1.2,1.2,3.2,1.2,4.4,0l9.4-9.4c0,0,0,0,0,0c0.1-0.1,0.1-0.1,0.2-0.2c0,0,0.1-0.1,0.1-0.1c0,0,0.1-0.1,0.1-0.1
					c0,0,0.1-0.1,0.1-0.1c0,0,0.1-0.1,0.1-0.1c0,0,0-0.1,0.1-0.1c0,0,0-0.1,0.1-0.1c0,0,0-0.1,0.1-0.1c0,0,0-0.1,0.1-0.1
					c0,0,0-0.1,0-0.1c0-0.1,0-0.1,0-0.2c0-0.1,0-0.1,0-0.2c0,0,0-0.1,0-0.1c0-0.2,0-0.4,0-0.6c0,0,0-0.1,0-0.1c0-0.1,0-0.1,0-0.2
					c0-0.1,0-0.1,0-0.2c0,0,0-0.1,0-0.1c0-0.1,0-0.1-0.1-0.1c0,0,0-0.1-0.1-0.1c0,0,0-0.1-0.1-0.1c0,0,0-0.1-0.1-0.1
					c0,0,0-0.1-0.1-0.1c0,0-0.1-0.1-0.1-0.1c0,0-0.1-0.1-0.1-0.1c0,0-0.1-0.1-0.1-0.1c-0.1-0.1-0.1-0.2-0.2-0.2c0,0,0,0,0,0
					l-9.4-9.4c-1.2-1.2-3.2-1.2-4.4,0c-1.2,1.2-1.2,3.2,0,4.4l4,4h-17.5c0,0,0,0,0,0c-13.8,0-25,11.2-25,25c0,6.2,2.5,12.1,6.8,16.4
					c1.2,1.2,3.2,1.2,4.4,0c1.2-1.2,1.2-3.2,0-4.4C307.2,68.8,305.3,64.6,305.3,60z"/>
				<path fill="#FFF7CF" d="M374.1,60c0-6.2-2.5-12.1-6.8-16.4c-1.2-1.2-3.2-1.2-4.4,0c-1.2,1.2-1.2,3.2,0,4.4c3.2,3.2,5,7.5,5,12
					c0,10.4-8.4,18.8-18.8,18.8c0,0,0,0,0,0h-17.4l4-4c1.2-1.2,1.2-3.2,0-4.4c-1.2-1.2-3.2-1.2-4.4,0l-9.4,9.4c0,0,0,0,0,0
					c-0.1,0.1-0.1,0.1-0.2,0.2c0,0-0.1,0.1-0.1,0.1c0,0-0.1,0.1-0.1,0.1c0,0-0.1,0.1-0.1,0.1c0,0-0.1,0.1-0.1,0.1c0,0,0,0.1-0.1,0.1
					c0,0,0,0.1-0.1,0.1c0,0,0,0.1-0.1,0.1c0,0,0,0.1-0.1,0.1c0,0,0,0.1,0,0.1c0,0.1,0,0.1,0,0.2c0,0.1,0,0.1,0,0.2c0,0,0,0.1,0,0.1
					c0,0.1,0,0.2,0,0.3c0,0,0,0,0,0c0,0,0,0,0,0c0,0.1,0,0.2,0,0.3c0,0,0,0.1,0,0.1c0,0.1,0,0.1,0,0.2c0,0.1,0,0.1,0,0.2
					c0,0,0,0.1,0,0.1c0,0.1,0,0.1,0.1,0.1c0,0,0,0.1,0.1,0.1c0,0,0,0.1,0.1,0.1c0,0,0,0.1,0.1,0.1c0,0,0,0.1,0.1,0.1
					c0,0,0.1,0.1,0.1,0.1c0,0,0.1,0.1,0.1,0.1c0,0,0.1,0.1,0.1,0.1c0.1,0.1,0.1,0.2,0.2,0.2l9.4,9.4c1.2,1.2,3.2,1.2,4.4,0
					s1.2-3.2,0-4.4l-4-4h17.5c0,0,0,0,0,0C363,85,374.1,73.8,374.1,60z"/>
			</g>
		</g>
	</g>
</g>
</svg>
